# xmcd CD database file
#
# Track frame offsets:
#	150
#	5959
#	16674
#	26281
#	36360
#	42296
#	50343
#	61111
#	73099
#	82083
#	91576
#	109879
#	117636
#	130572
#	139658
#	151708
#	162194
#	170144
#	180456
#	193140
#	208025
#	220519
#	235846
#	248056
#	259422
#
# Disc length: 3709 seconds
#
# Revision: 0
# Processed by: cddbd v1.5.2PL0 Copyright (c) Steve Scherf et al.
# Submitted via: CD2WAV32(JP) R3.22
#
DISCID=540e7b19
DTITLE=Other - かっこいいえいごのうた50 CD2
DYEAR=2010
DGENRE=Other
TTITLE0=ダンシング・デイズ（マンデイ）
TTITLE1=じゃんけん、ぽん！
TTITLE2=聖者の行進
TTITLE3=ミッキーマウス・マーチ
TTITLE4=プッシュ・アンド・プル
TTITLE5=ディス・イズ・ザ・ウェイ
TTITLE6=ゆかいなまきば
TTITLE7=きらきらぼし
TTITLE8=小さな世界
TTITLE9=クラップ・ユア・ハンズ
TTITLE10=パフ
TTITLE11=わらの中のしちめんちょう
TTITLE12=ジッパ・ディ・ドゥー・ダー（南部の唄）
TTITLE13=10羽のペンギン
TTITLE14=3びきのこねこ
TTITLE15=あたま・かた・ひざ・つまさき
TTITLE16=アー・ユー・スリーピング
TTITLE17=こげよマイケル
TTITLE18=ユー・アー・マイ・サンシャイン
TTITLE19=カントリー・ロード
TTITLE20=赤鼻のトナカイ
TTITLE21=ハッピー・クリスマス
TTITLE22=コンドルは飛んで行く
TTITLE23=ララルー
TTITLE24=右から二番目の星
EXTD=
EXTT0=
EXTT1=
EXTT2=
EXTT3=
EXTT4=
EXTT5=
EXTT6=
EXTT7=
EXTT8=
EXTT9=
EXTT10=
EXTT11=
EXTT12=
EXTT13=
EXTT14=
EXTT15=
EXTT16=
EXTT17=
EXTT18=
EXTT19=
EXTT20=
EXTT21=
EXTT22=
EXTT23=
EXTT24=
PLAYORDER=
